<svg xmlns="http://www.w3.org/2000/svg" xmlns:xlink="http://www.w3.org/1999/xlink" height="200" width="400"><polygon points="0,200 0,100 1,99 2,98 3,99 4,100 5,101 6,100 7,101 8,100 9,101 10,100 11,101 12,100 13,99 14,98 15,99 16,100 17,101 18,100 19,101 20,102 21,101 22,102 23,101 24,100 25,101 26,102 27,103 28,102 29,103 30,102 31,103 32,104 33,103 34,102 35,101 36,100 37,101 38,100 39,99 40,100 41,101 42,102 43,103 44,104 45,103 46,102 47,103 48,104 49,103 50,102 51,103 52,104 53,103 54,102 55,103 56,104 57,105 58,106 59,107 60,108 61,109 62,110 63,111 64,112 65,113 66,112 67,111 68,112 69,113 70,112 71,113 72,112 73,113 74,112 75,111 76,112 77,111 78,112 79,113 80,112 81,111 82,112 83,113 84,112 85,111 86,112 87,111 88,112 89,113 90,114 91,115 92,116 93,115 94,116 95,117 96,118 97,119 98,120 99,119 100,118 101,117 102,118 103,117 104,116 105,117 106,118 107,117 108,116 109,117 110,116 111,115 112,114 113,115 114,116 115,117 116,116 117,117 118,118 119,117 120,116 121,117 122,118 123,117 124,118 125,117 126,118 127,119 128,118 129,117 130,116 131,117 132,116 133,115 134,116 135,115 136,114 137,115 138,114 139,115 140,116 141,115 142,116 143,115 144,116 145,117 146,118 147,117 148,118 149,117 150,116 151,117 152,118 153,117 154,116 155,117 156,118 157,119 158,120 159,119 160,118 161,117 162,118 163,117 164,116 165,117 166,116 167,115 168,114 169,113 170,112 171,113 172,114 173,115 174,114 175,115 176,116 177,115 178,116 179,115 180,114 181,115 182,114 183,115 184,114 185,113 186,114 187,115 188,114 189,115 190,114 191,115 192,116 193,117 194,116 195,115 196,114 197,115 198,116 199,117 200,116 201,117 202,116 203,117 204,116 205,115 206,114 207,113 208,114 209,115 210,116 211,115 212,116 213,115 214,116 215,117 216,116 217,117 218,116 219,117 220,118 221,117 222,118 223,117 224,116 225,115 226,116 227,115 228,114 229,113 230,114 231,113 232,114 233,113 234,112 235,113 236,112 237,111 238,110 239,111 240,112 241,111 242,110 243,111 244,112 245,111 246,112 247,113 248,114 249,115 250,116 251,115 252,114 253,113 254,112 255,113 256,114 257,115 258,116 259,117 260,118 261,117 262,116 263,115 264,114 265,115 266,114 267,113 268,112 269,111 270,110 271,111 272,112 273,113 274,114 275,113 276,112 277,111 278,110 279,109 280,110 281,109 282,108 283,107 284,108 285,107 286,108 287,109 288,110 289,111 290,112 291,113 292,114 293,113 294,112 295,113 296,114 297,115 298,116 299,115 300,116 301,115 302,114 303,113 304,112 305,113 306,112 307,111 308,110 309,109 310,110 311,111 312,110 313,109 314,108 315,109 316,108 317,107 318,106 319,107 320,108 321,109 322,108 323,109 324,110 325,111 326,110 327,109 328,108 329,109 330,108 331,109 332,108 333,107 334,108 335,107 336,108 337,109 338,108 339,107 340,106 341,107 342,106 343,105 344,104 345,103 346,102 347,101 348,100 349,101 350,100 351,101 352,102 353,103 354,102 355,103 356,102 357,103 358,104 359,105 360,104 361,105 362,106 363,107 364,106 365,107 366,106 367,107 368,106 369,107 370,108 371,109 372,110 373,111 374,110 375,111 376,112 377,111 378,110 379,109 380,108 381,109 382,108 383,109 384,110 385,111 386,112 387,113 388,114 389,113 390,114 391,113 392,112 393,113 394,112 395,111 396,110 397,109 398,110 399,111 400,200 " style="fill:rgb(99,67,102);stroke:rgb(0,0,2)"></polygon><polygon points="0,200 0,100 1,101 2,102 3,101 4,100 5,101 6,102 7,103 8,102 9,103 10,102 11,101 12,100 13,99 14,98 15,99 16,100 17,99 18,98 19,97 20,96 21,95 22,94 23,95 24,96 25,97 26,96 27,97 28,96 29,95 30,94 31,95 32,94 33,95 34,96 35,97 36,98 37,97 38,98 39,99 40,98 41,99 42,100 43,99 44,98 45,97 46,98 47,99 48,98 49,99 50,98 51,97 52,98 53,97 54,96 55,97 56,96 57,95 58,96 59,97 60,98 61,97 62,98 63,97 64,98 65,97 66,98 67,99 68,98 69,99 70,100 71,99 72,100 73,99 74,98 75,99 76,100 77,101 78,100 79,99 80,98 81,97 82,96 83,97 84,96 85,95 86,94 87,95 88,94 89,93 90,92 91,93 92,92 93,93 94,92 95,93 96,94 97,93 98,94 99,93 100,94 101,93 102,92 103,93 104,94 105,95 106,94 107,95 108,96 109,97 110,96 111,95 112,94 113,93 114,94 115,93 116,94 117,95 118,96 119,97 120,96 121,95 122,94 123,93 124,94 125,93 126,92 127,93 128,94 129,95 130,94 131,93 132,94 133,93 134,92 135,91 136,92 137,91 138,92 139,91 140,90 141,91 142,92 143,93 144,92 145,91 146,90 147,91 148,92 149,93 150,94 151,95 152,94 153,95 154,94 155,93 156,94 157,95 158,94 159,95 160,96 161,95 162,96 163,97 164,98 165,99 166,100 167,99 168,100 169,99 170,100 171,99 172,98 173,99 174,100 175,99 176,98 177,97 178,98 179,97 180,98 181,97 182,96 183,95 184,94 185,95 186,94 187,95 188,96 189,95 190,94 191,95 192,96 193,97 194,96 195,97 196,98 197,99 198,98 199,99 200,98 201,97 202,98 203,97 204,96 205,95 206,96 207,95 208,96 209,95 210,94 211,93 212,94 213,95 214,94 215,95 216,96 217,95 218,94 219,95 220,96 221,95 222,94 223,93 224,92 225,91 226,92 227,91 228,92 229,91 230,90 231,91 232,90 233,89 234,88 235,89 236,88 237,89 238,88 239,89 240,90 241,91 242,92 243,91 244,92 245,93 246,94 247,93 248,92 249,91 250,90 251,89 252,88 253,87 254,88 255,87 256,88 257,87 258,88 259,89 260,90 261,89 262,90 263,89 264,90 265,89 266,88 267,89 268,90 269,89 270,88 271,89 272,90 273,89 274,90 275,89 276,88 277,87 278,88 279,89 280,90 281,91 282,92 283,91 284,90 285,89 286,90 287,91 288,90 289,89 290,88 291,87 292,86 293,87 294,88 295,87 296,88 297,89 298,90 299,89 300,88 301,89 302,90 303,91 304,90 305,91 306,92 307,91 308,90 309,89 310,90 311,91 312,90 313,91 314,90 315,89 316,90 317,91 318,90 319,91 320,90 321,89 322,88 323,87 324,88 325,87 326,88 327,89 328,88 329,89 330,88 331,89 332,90 333,91 334,92 335,91 336,92 337,91 338,92 339,93 340,92 341,91 342,92 343,93 344,92 345,93 346,92 347,91 348,90 349,91 350,90 351,89 352,90 353,91 354,92 355,93 356,92 357,93 358,92 359,91 360,90 361,89 362,88 363,87 364,86 365,87 366,86 367,85 368,86 369,85 370,84 371,83 372,84 373,85 374,84 375,85 376,84 377,85 378,86 379,85 380,84 381,83 382,84 383,83 384,84 385,83 386,84 387,85 388,84 389,85 390,84 391,85 392,84 393,83 394,84 395,83 396,82 397,83 398,82 399,83 400,200 " style="fill:rgb(160,167,58);stroke:rgb(60,67,0)"></polygon><polygon points="0,200 0,100 1,99 2,100 3,99 4,100 5,101 6,102 7,103 8,102 9,103 10,102 11,103 12,104 13,103 14,102 15,103 16,102 17,103 18,104 19,103 20,104 21,105 22,104 23,105 24,106 25,105 26,104 27,103 28,102 29,103 30,102 31,101 32,100 33,101 34,100 35,101 36,100 37,101 38,100 39,101 40,102 41,103 42,102 43,101 44,100 45,101 46,100 47,101 48,100 49,99 50,100 51,101 52,102 53,103 54,102 55,103 56,102 57,101 58,102 59,101 60,100 61,99 62,98 63,97 64,98 65,97 66,98 67,99 68,100 69,101 70,102 71,103 72,104 73,105 74,104 75,105 76,106 77,107 78,108 79,107 80,108 81,107 82,108 83,107 84,108 85,107 86,106 87,105 88,104 89,103 90,104 91,105 92,106 93,105 94,104 95,105 96,106 97,105 98,104 99,103 100,102 101,101 102,102 103,101 104,102 105,101 106,102 107,101 108,102 109,101 110,100 111,99 112,100 113,101 114,102 115,103 116,104 117,105 118,106 119,105 120,106 121,107 122,108 123,107 124,106 125,105 126,104 127,105 128,104 129,103 130,102 131,103 132,104 133,103 134,102 135,103 136,104 137,105 138,104 139,105 140,106 141,105 142,106 143,107 144,106 145,107 146,106 147,105 148,104 149,105 150,106 151,107 152,108 153,107 154,108 155,109 156,110 157,109 158,108 159,107 160,106 161,105 162,106 163,107 164,108 165,109 166,108 167,109 168,110 169,109 170,110 171,109 172,110 173,109 174,110 175,109 176,110 177,111 178,110 179,111 180,112 181,113 182,114 183,113 184,112 185,113 186,114 187,115 188,114 189,113 190,114 191,115 192,114 193,113 194,114 195,113 196,114 197,115 198,114 199,115 200,114 201,115 202,116 203,115 204,114 205,113 206,112 207,113 208,112 209,111 210,112 211,113 212,112 213,111 214,110 215,111 216,110 217,109 218,108 219,109 220,108 221,107 222,106 223,107 224,108 225,107 226,108 227,107 228,108 229,107 230,108 231,107 232,108 233,109 234,108 235,107 236,108 237,109 238,108 239,107 240,106 241,105 242,106 243,107 244,108 245,107 246,108 247,109 248,108 249,107 250,108 251,109 252,108 253,109 254,110 255,109 256,110 257,111 258,110 259,109 260,108 261,107 262,106 263,105 264,104 265,105 266,104 267,103 268,104 269,103 270,104 271,103 272,102 273,103 274,102 275,103 276,104 277,103 278,104 279,105 280,106 281,105 282,104 283,105 284,104 285,103 286,102 287,101 288,100 289,99 290,98 291,99 292,98 293,97 294,96 295,95 296,94 297,95 298,96 299,95 300,96 301,97 302,98 303,97 304,96 305,95 306,94 307,93 308,92 309,91 310,92 311,93 312,94 313,93 314,94 315,93 316,92 317,93 318,92 319,91 320,92 321,93 322,94 323,95 324,96 325,95 326,94 327,93 328,94 329,95 330,96 331,97 332,96 333,95 334,94 335,93 336,92 337,91 338,90 339,91 340,90 341,89 342,88 343,89 344,88 345,89 346,90 347,91 348,92 349,93 350,92 351,93 352,94 353,95 354,94 355,93 356,92 357,93 358,94 359,93 360,94 361,95 362,94 363,93 364,92 365,91 366,92 367,93 368,92 369,93 370,92 371,91 372,92 373,93 374,92 375,91 376,92 377,93 378,94 379,93 380,92 381,91 382,90 383,91 384,90 385,91 386,90 387,91 388,90 389,89 390,90 391,91 392,92 393,91 394,92 395,93 396,92 397,91 398,90 399,89 400,200 " style="fill:rgb(153,73,173);stroke:rgb(53,0,73)"></polygon><polygon points="0,200 0,100 1,101 2,100 3,99 4,98 5,99 6,100 7,101 8,100 9,99 10,98 11,97 12,98 13,99 14,100 15,101 16,102 17,103 18,102 19,101 20,102 21,101 22,102 23,101 24,100 25,99 26,100 27,99 28,100 29,99 30,98 31,97 32,98 33,97 34,98 35,97 36,98 37,99 38,100 39,99 40,98 41,99 42,100 43,101 44,102 45,103 46,102 47,103 48,102 49,103 50,104 51,105 52,106 53,105 54,104 55,105 56,104 57,105 58,104 59,105 60,104 61,105 62,104 63,105 64,104 65,105 66,106 67,105 68,106 69,105 70,104 71,103 72,104 73,103 74,104 75,105 76,106 77,107 78,106 79,107 80,108 81,109 82,108 83,107 84,106 85,107 86,106 87,107 88,108 89,109 90,110 91,111 92,110 93,109 94,108 95,107 96,106 97,107 98,106 99,105 100,106 101,105 102,104 103,103 104,102 105,103 106,102 107,101 108,100 109,99 110,98 111,97 112,98 113,97 114,96 115,97 116,96 117,97 118,98 119,97 120,96 121,95 122,96 123,97 124,98 125,99 126,98 127,97 128,96 129,97 130,96 131,95 132,96 133,95 134,96 135,95 136,96 137,95 138,94 139,93 140,94 141,95 142,96 143,97 144,98 145,99 146,98 147,97 148,96 149,97 150,98 151,97 152,98 153,97 154,98 155,99 156,98 157,99 158,100 159,99 160,98 161,99 162,98 163,99 164,100 165,101 166,102 167,101 168,100 169,99 170,98 171,97 172,96 173,97 174,98 175,97 176,96 177,95 178,94 179,93 180,92 181,91 182,90 183,91 184,90 185,91 186,92 187,93 188,92 189,93 190,92 191,91 192,90 193,91 194,90 195,89 196,90 197,89 198,88 199,89 200,90 201,89 202,88 203,89 204,88 205,89 206,88 207,89 208,88 209,87 210,88 211,87 212,88 213,89 214,90 215,91 216,90 217,89 218,88 219,87 220,88 221,87 222,88 223,87 224,88 225,87 226,88 227,89 228,88 229,87 230,88 231,87 232,88 233,87 234,88 235,89 236,88 237,87 238,88 239,87 240,88 241,89 242,90 243,89 244,88 245,87 246,86 247,87 248,88 249,89 250,88 251,87 252,88 253,87 254,86 255,87 256,86 257,85 258,84 259,83 260,84 261,83 262,84 263,85 264,86 265,85 266,84 267,85 268,84 269,83 270,84 271,83 272,82 273,83 274,82 275,83 276,84 277,85 278,86 279,87 280,86 281,87 282,88 283,89 284,90 285,91 286,92 287,93 288,94 289,93 290,94 291,93 292,92 293,93 294,92 295,91 296,92 297,93 298,94 299,95 300,94 301,93 302,92 303,91 304,92 305,93 306,94 307,95 308,94 309,93 310,94 311,93 312,92 313,91 314,92 315,93 316,92 317,91 318,92 319,93 320,92 321,93 322,92 323,93 324,94 325,95 326,94 327,93 328,92 329,91 330,90 331,91 332,90 333,89 334,88 335,87 336,88 337,87 338,88 339,87 340,86 341,85 342,86 343,85 344,84 345,83 346,82 347,81 348,80 349,81 350,82 351,81 352,80 353,79 354,78 355,77 356,78 357,77 358,76 359,77 360,76 361,77 362,76 363,75 364,76 365,75 366,74 367,73 368,72 369,73 370,72 371,73 372,74 373,73 374,74 375,75 376,76 377,77 378,76 379,75 380,76 381,77 382,76 383,77 384,76 385,75 386,76 387,75 388,76 389,77 390,76 391,75 392,76 393,75 394,74 395,75 396,74 397,75 398,76 399,77 400,200 " style="fill:rgb(110,53,212);stroke:rgb(10,0,112)"></polygon><polygon points="0,200 0,100 1,99 2,98 3,97 4,98 5,97 6,96 7,95 8,94 9,93 10,94 11,93 12,92 13,93 14,92 15,93 16,94 17,95 18,94 19,95 20,94 21,93 22,92 23,93 24,92 25,93 26,92 27,93 28,94 29,93 30,94 31,93 32,94 33,93 34,92 35,91 36,90 37,89 38,88 39,87 40,88 41,89 42,90 43,89 44,90 45,89 46,90 47,89 48,88 49,87 50,88 51,87 52,86 53,85 54,86 55,87 56,88 57,87 58,88 59,89 60,88 61,89 62,90 63,89 64,90 65,91 66,90 67,91 68,92 69,93 70,94 71,95 72,96 73,95 74,96 75,97 76,98 77,97 78,96 79,95 80,94 81,95 82,96 83,95 84,94 85,95 86,96 87,97 88,96 89,97 90,96 91,95 92,94 93,93 94,94 95,95 96,94 97,93 98,92 99,93 100,92 101,93 102,94 103,95 104,96 105,97 106,96 107,95 108,94 109,95 110,94 111,95 112,94 113,93 114,94 115,93 116,92 117,91 118,92 119,93 120,92 121,93 122,92 123,93 124,92 125,91 126,92 127,91 128,90 129,89 130,88 131,89 132,88 133,87 134,86 135,87 136,86 137,87 138,88 139,89 140,90 141,89 142,90 143,89 144,90 145,89 146,88 147,87 148,88 149,89 150,90 151,91 152,90 153,89 154,88 155,87 156,86 157,85 158,84 159,83 160,84 161,83 162,82 163,81 164,82 165,83 166,82 167,81 168,82 169,81 170,80 171,81 172,80 173,81 174,82 175,81 176,82 177,81 178,80 179,79 180,78 181,77 182,78 183,79 184,78 185,77 186,76 187,75 188,74 189,75 190,76 191,77 192,78 193,77 194,78 195,77 196,78 197,79 198,80 199,79 200,78 201,77 202,78 203,77 204,76 205,77 206,78 207,79 208,78 209,77 210,78 211,79 212,80 213,79 214,78 215,77 216,76 217,75 218,76 219,75 220,76 221,77 222,76 223,77 224,78 225,77 226,76 227,77 228,76 229,77 230,78 231,79 232,78 233,79 234,80 235,79 236,78 237,79 238,78 239,79 240,80 241,79 242,80 243,79 244,78 245,77 246,78 247,79 248,80 249,81 250,82 251,81 252,80 253,81 254,80 255,81 256,82 257,81 258,82 259,81 260,80 261,81 262,82 263,81 264,80 265,81 266,82 267,81 268,80 269,81 270,80 271,79 272,78 273,77 274,76 275,77 276,76 277,75 278,74 279,73 280,72 281,73 282,72 283,71 284,72 285,73 286,74 287,75 288,76 289,77 290,78 291,79 292,80 293,81 294,82 295,83 296,82 297,81 298,82 299,83 300,82 301,83 302,84 303,83 304,82 305,83 306,82 307,83 308,82 309,81 310,82 311,81 312,82 313,81 314,82 315,81 316,82 317,83 318,84 319,83 320,82 321,81 322,82 323,83 324,82 325,83 326,82 327,83 328,82 329,83 330,84 331,85 332,86 333,87 334,86 335,87 336,86 337,85 338,86 339,85 340,84 341,85 342,86 343,85 344,86 345,87 346,88 347,89 348,88 349,87 350,88 351,89 352,90 353,91 354,92 355,93 356,94 357,93 358,94 359,95 360,96 361,95 362,96 363,95 364,96 365,95 366,96 367,95 368,94 369,93 370,92 371,91 372,90 373,89 374,90 375,89 376,88 377,89 378,90 379,89 380,88 381,89 382,88 383,87 384,86 385,85 386,86 387,87 388,88 389,89 390,88 391,89 392,90 393,89 394,88 395,89 396,90 397,91 398,92 399,93 400,200 " style="fill:rgb(242,35,165);stroke:rgb(142,0,65)"></polygon><polygon points="0,200 0,100 1,101 2,100 3,99 4,98 5,97 6,96 7,95 8,94 9,95 10,96 11,95 12,94 13,95 14,96 15,95 16,94 17,95 18,96 19,95 20,96 21,97 22,98 23,97 24,98 25,99 26,98 27,99 28,100 29,101 30,102 31,101 32,100 33,101 34,100 35,99 36,98 37,99 38,100 39,101 40,102 41,101 42,102 43,101 44,100 45,99 46,98 47,97 48,96 49,95 50,94 51,93 52,94 53,95 54,94 55,95 56,94 57,95 58,94 59,93 60,94 61,95 62,94 63,95 64,94 65,93 66,94 67,95 68,94 69,95 70,96 71,95 72,96 73,97 74,96 75,97 76,96 77,97 78,98 79,99 80,100 81,99 82,100 83,101 84,100 85,99 86,98 87,99 88,98 89,99 90,98 91,99 92,100 93,101 94,102 95,101 96,102 97,103 98,102 99,103 100,104 101,103 102,104 103,103 104,104 105,103 106,102 107,101 108,102 109,101 110,100 111,101 112,102 113,101 114,100 115,101 116,100 117,99 118,98 119,99 120,98 121,97 122,96 123,95 124,94 125,93 126,92 127,91 128,90 129,89 130,90 131,89 132,90 133,91 134,92 135,91 136,92 137,91 138,92 139,91 140,92 141,91 142,92 143,91 144,90 145,89 146,90 147,91 148,92 149,91 150,92 151,91 152,90 153,91 154,90 155,89 156,90 157,89 158,90 159,89 160,88 161,89 162,90 163,91 164,90 165,89 166,88 167,89 168,88 169,87 170,88 171,89 172,88 173,89 174,90 175,91 176,90 177,91 178,92 179,93 180,92 181,91 182,92 183,91 184,92 185,91 186,92 187,91 188,90 189,91 190,92 191,91 192,90 193,91 194,90 195,91 196,90 197,91 198,90 199,91 200,90 201,89 202,88 203,87 204,86 205,87 206,88 207,87 208,88 209,87 210,88 211,87 212,88 213,89 214,88 215,89 216,88 217,89 218,88 219,87 220,88 221,87 222,88 223,87 224,88 225,89 226,88 227,87 228,88 229,89 230,90 231,91 232,92 233,91 234,92 235,93 236,94 237,93 238,94 239,93 240,92 241,93 242,94 243,95 244,96 245,95 246,94 247,93 248,94 249,95 250,96 251,95 252,96 253,95 254,96 255,97 256,96 257,97 258,98 259,97 260,98 261,99 262,100 263,101 264,100 265,101 266,100 267,101 268,102 269,101 270,102 271,103 272,104 273,103 274,104 275,103 276,102 277,103 278,104 279,105 280,104 281,103 282,104 283,105 284,106 285,107 286,106 287,105 288,104 289,105 290,106 291,107 292,106 293,107 294,106 295,107 296,106 297,105 298,104 299,103 300,104 301,105 302,104 303,105 304,106 305,107 306,106 307,107 308,106 309,105 310,106 311,107 312,108 313,107 314,106 315,107 316,108 317,109 318,108 319,109 320,110 321,109 322,108 323,109 324,110 325,111 326,110 327,109 328,110 329,111 330,110 331,109 332,110 333,109 334,108 335,107 336,106 337,107 338,108 339,107 340,108 341,107 342,106 343,107 344,108 345,109 346,108 347,109 348,110 349,111 350,112 351,111 352,112 353,113 354,114 355,113 356,114 357,113 358,112 359,113 360,114 361,115 362,114 363,113 364,114 365,115 366,116 367,115 368,114 369,115 370,114 371,113 372,114 373,115 374,116 375,117 376,118 377,119 378,118 379,117 380,116 381,115 382,116 383,115 384,116 385,115 386,114 387,113 388,112 389,113 390,112 391,111 392,112 393,113 394,112 395,113 396,112 397,113 398,114 399,115 400,200 " style="fill:rgb(65,226,176);stroke:rgb(0,126,76)"></polygon><polygon points="0,200 0,100 1,101 2,102 3,101 4,100 5,101 6,100 7,99 8,98 9,97 10,96 11,95 12,94 13,93 14,92 15,91 16,90 17,91 18,90 19,89 20,88 21,89 22,88 23,89 24,88 25,87 26,86 27,87 28,86 29,87 30,88 31,89 32,88 33,87 34,86 35,85 36,86 37,85 38,86 39,85 40,86 41,85 42,84 43,83 44,84 45,85 46,86 47,85 48,84 49,83 50,84 51,83 52,84 53,83 54,84 55,83 56,82 57,81 58,82 59,81 60,82 61,83 62,84 63,83 64,82 65,83 66,82 67,83 68,84 69,85 70,86 71,87 72,86 73,85 74,84 75,85 76,86 77,87 78,88 79,89 80,90 81,91 82,92 83,93 84,94 85,95 86,94 87,93 88,94 89,93 90,94 91,95 92,94 93,95 94,94 95,93 96,94 97,93 98,92 99,91 100,90 101,89 102,88 103,87 104,86 105,85 106,86 107,85 108,86 109,85 110,86 111,87 112,88 113,87 114,88 115,89 116,88 117,87 118,88 119,89 120,90 121,91 122,90 123,89 124,90 125,91 126,92 127,91 128,90 129,91 130,92 131,93 132,92 133,93 134,92 135,91 136,92 137,91 138,90 139,89 140,88 141,87 142,88 143,87 144,88 145,89 146,88 147,87 148,88 149,89 150,90 151,91 152,90 153,91 154,90 155,91 156,92 157,91 158,90 159,89 160,90 161,91 162,90 163,91 164,90 165,91 166,92 167,91 168,92 169,93 170,94 171,95 172,94 173,95 174,96 175,97 176,96 177,97 178,98 179,97 180,96 181,97 182,98 183,99 184,100 185,99 186,100 187,101 188,100 189,101 190,100 191,99 192,100 193,101 194,100 195,101 196,100 197,101 198,100 199,101 200,102 201,101 202,100 203,101 204,102 205,101 206,100 207,101 208,102 209,103 210,104 211,103 212,104 213,105 214,106 215,105 216,104 217,105 218,106 219,107 220,106 221,105 222,104 223,103 224,104 225,105 226,104 227,105 228,106 229,107 230,106 231,107 232,108 233,109 234,108 235,109 236,108 237,109 238,110 239,109 240,110 241,109 242,110 243,109 244,110 245,109 246,108 247,109 248,108 249,107 250,106 251,107 252,108 253,109 254,108 255,109 256,110 257,111 258,112 259,113 260,112 261,113 262,114 263,113 264,112 265,113 266,112 267,111 268,110 269,111 270,110 271,111 272,112 273,111 274,110 275,109 276,110 277,109 278,108 279,107 280,108 281,107 282,108 283,107 284,108 285,109 286,108 287,107 288,108 289,107 290,108 291,109 292,110 293,109 294,110 295,111 296,112 297,111 298,110 299,109 300,110 301,109 302,110 303,109 304,108 305,109 306,108 307,109 308,110 309,111 310,112 311,113 312,114 313,113 314,112 315,113 316,112 317,113 318,112 319,113 320,112 321,113 322,112 323,111 324,110 325,111 326,112 327,111 328,110 329,109 330,108 331,109 332,110 333,109 334,110 335,111 336,110 337,109 338,108 339,107 340,106 341,105 342,106 343,105 344,106 345,105 346,104 347,105 348,106 349,107 350,108 351,109 352,108 353,107 354,108 355,109 356,108 357,107 358,106 359,105 360,106 361,107 362,108 363,107 364,108 365,109 366,110 367,111 368,110 369,111 370,110 371,111 372,110 373,111 374,110 375,109 376,108 377,107 378,108 379,109 380,108 381,109 382,108 383,109 384,110 385,111 386,110 387,111 388,110 389,109 390,108 391,107 392,108 393,109 394,108 395,109 396,108 397,109 398,110 399,111 400,200 " style="fill:rgb(174,124,183);stroke:rgb(74,24,83)"></polygon><polygon points="0,200 0,100 1,99 2,98 3,99 4,100 5,101 6,100 7,99 8,98 9,99 10,100 11,101 12,102 13,101 14,100 15,99 16,100 17,101 18,100 19,101 20,100 21,101 22,102 23,101 24,100 25,101 26,102 27,101 28,100 29,101 30,100 31,101 32,102 33,101 34,100 35,99 36,98 37,97 38,96 39,95 40,96 41,97 42,98 43,97 44,98 45,97 46,96 47,95 48,96 49,95 50,94 51,95 52,96 53,95 54,96 55,97 56,98 57,97 58,98 59,99 60,98 61,97 62,96 63,95 64,96 65,95 66,94 67,95 68,96 69,95 70,94 71,93 72,92 73,93 74,94 75,93 76,94 77,93 78,92 79,93 80,94 81,95 82,96 83,97 84,96 85,95 86,96 87,95 88,94 89,95 90,94 91,93 92,94 93,95 94,94 95,93 96,94 97,93 98,94 99,93 100,92 101,93 102,92 103,91 104,92 105,93 106,92 107,91 108,92 109,91 110,90 111,91 112,90 113,91 114,90 115,89 116,90 117,89 118,90 119,89 120,88 121,87 122,88 123,89 124,90 125,91 126,90 127,89 128,88 129,89 130,88 131,87 132,86 133,85 134,86 135,85 136,86 137,87 138,88 139,87 140,86 141,87 142,88 143,89 144,88 145,89 146,90 147,91 148,92 149,91 150,90 151,91 152,92 153,91 154,90 155,89 156,88 157,87 158,88 159,87 160,86 161,85 162,86 163,85 164,84 165,85 166,86 167,87 168,88 169,87 170,86 171,87 172,88 173,89 174,88 175,87 176,88 177,89 178,88 179,87 180,88 181,87 182,88 183,89 184,90 185,91 186,92 187,91 188,92 189,91 190,90 191,89 192,90 193,91 194,92 195,91 196,90 197,91 198,90 199,89 200,90 201,89 202,88 203,87 204,86 205,87 206,88 207,89 208,90 209,91 210,90 211,91 212,92 213,93 214,92 215,93 216,92 217,93 218,94 219,93 220,92 221,91 222,92 223,93 224,94 225,95 226,94 227,95 228,94 229,93 230,92 231,93 232,94 233,95 234,94 235,95 236,94 237,93 238,92 239,93 240,92 241,91 242,92 243,93 244,92 245,91 246,92 247,91 248,90 249,91 250,92 251,91 252,90 253,91 254,92 255,91 256,90 257,91 258,90 259,89 260,90 261,89 262,90 263,91 264,90 265,91 266,90 267,89 268,90 269,91 270,92 271,93 272,92 273,93 274,94 275,95 276,96 277,97 278,98 279,97 280,98 281,97 282,98 283,99 284,98 285,97 286,96 287,97 288,96 289,97 290,98 291,99 292,100 293,101 294,102 295,103 296,104 297,103 298,102 299,101 300,102 301,103 302,104 303,103 304,102 305,101 306,100 307,101 308,102 309,101 310,102 311,103 312,102 313,101 314,102 315,103 316,102 317,103 318,102 319,103 320,102 321,103 322,104 323,103 324,104 325,105 326,106 327,107 328,106 329,105 330,104 331,105 332,106 333,107 334,108 335,107 336,106 337,107 338,106 339,107 340,108 341,107 342,108 343,109 344,110 345,111 346,110 347,109 348,108 349,107 350,106 351,105 352,104 353,105 354,104 355,105 356,104 357,103 358,104 359,105 360,106 361,105 362,106 363,107 364,106 365,105 366,104 367,105 368,104 369,105 370,106 371,105 372,104 373,103 374,104 375,103 376,104 377,103 378,104 379,105 380,104 381,105 382,106 383,105 384,106 385,105 386,106 387,107 388,108 389,109 390,110 391,111 392,112 393,111 394,110 395,109 396,108 397,107 398,106 399,105 400,200 " style="fill:rgb(222,155,78);stroke:rgb(122,55,0)"></polygon><polygon points="0,200 0,100 1,99 2,98 3,97 4,96 5,95 6,96 7,97 8,98 9,99 10,100 11,99 12,100 13,99 14,100 15,101 16,100 17,99 18,98 19,99 20,100 21,101 22,100 23,101 24,102 25,103 26,102 27,101 28,102 29,101 30,100 31,99 32,98 33,99 34,100 35,99 36,100 37,101 38,100 39,99 40,100 41,99 42,100 43,101 44,100 45,101 46,102 47,103 48,102 49,103 50,104 51,105 52,104 53,105 54,106 55,105 56,104 57,103 58,104 59,105 60,106 61,107 62,108 63,107 64,108 65,107 66,106 67,105 68,106 69,107 70,106 71,107 72,108 73,107 74,106 75,105 76,104 77,105 78,104 79,103 80,104 81,103 82,102 83,103 84,104 85,105 86,104 87,103 88,104 89,105 90,106 91,105 92,104 93,105 94,106 95,105 96,104 97,105 98,104 99,105 100,104 101,105 102,106 103,107 104,108 105,109 106,110 107,109 108,110 109,111 110,110 111,109 112,110 113,109 114,108 115,107 116,106 117,107 118,108 119,109 120,110 121,111 122,112 123,111 124,112 125,113 126,114 127,115 128,116 129,117 130,118 131,117 132,116 133,117 134,118 135,119 136,118 137,119 138,118 139,117 140,118 141,119 142,120 143,121 144,120 145,119 146,118 147,119 148,118 149,119 150,120 151,121 152,122 153,123 154,124 155,123 156,122 157,123 158,124 159,123 160,122 161,123 162,122 163,123 164,124 165,125 166,124 167,125 168,126 169,127 170,128 171,127 172,126 173,125 174,126 175,125 176,124 177,123 178,122 179,121 180,122 181,121 182,122 183,123 184,124 185,125 186,124 187,123 188,124 189,123 190,124 191,125 192,124 193,125 194,126 195,125 196,124 197,123 198,124 199,125 200,124 201,125 202,126 203,125 204,124 205,123 206,122 207,121 208,122 209,121 210,120 211,121 212,122 213,121 214,122 215,121 216,122 217,123 218,124 219,125 220,126 221,127 222,126 223,127 224,126 225,127 226,126 227,127 228,128 229,129 230,128 231,127 232,126 233,127 234,128 235,127 236,128 237,129 238,128 239,129 240,128 241,127 242,128 243,129 244,128 245,129 246,130 247,129 248,128 249,129 250,128 251,129 252,128 253,127 254,128 255,129 256,128 257,127 258,126 259,127 260,126 261,125 262,126 263,125 264,126 265,125 266,126 267,127 268,126 269,125 270,124 271,125 272,126 273,127 274,128 275,129 276,128 277,129 278,128 279,129 280,130 281,129 282,130 283,129 284,128 285,129 286,128 287,129 288,128 289,127 290,126 291,127 292,126 293,127 294,128 295,129 296,130 297,131 298,130 299,129 300,130 301,129 302,128 303,129 304,130 305,129 306,128 307,129 308,130 309,129 310,130 311,131 312,130 313,131 314,132 315,133 316,134 317,135 318,136 319,137 320,138 321,137 322,136 323,137 324,136 325,137 326,138 327,139 328,140 329,139 330,138 331,137 332,136 333,135 334,136 335,137 336,136 337,137 338,136 339,137 340,136 341,135 342,134 343,133 344,134 345,135 346,136 347,137 348,138 349,139 350,140 351,141 352,140 353,141 354,140 355,139 356,138 357,139 358,140 359,139 360,138 361,139 362,140 363,141 364,140 365,139 366,140 367,139 368,138 369,139 370,140 371,139 372,140 373,139 374,140 375,139 376,138 377,137 378,138 379,139 380,138 381,139 382,140 383,139 384,140 385,139 386,140 387,141 388,140 389,141 390,142 391,141 392,142 393,143 394,144 395,145 396,144 397,143 398,142 399,143 400,200 " style="fill:rgb(113,87,137);stroke:rgb(13,0,37)"></polygon><polygon points="0,200 0,100 1,99 2,100 3,99 4,98 5,99 6,100 7,101 8,102 9,103 10,104 11,103 12,102 13,101 14,100 15,101 16,102 17,101 18,100 19,99 20,100 21,99 22,100 23,99 24,98 25,97 26,96 27,97 28,96 29,97 30,96 31,97 32,98 33,97 34,96 35,95 36,94 37,93 38,94 39,95 40,96 41,97 42,96 43,95 44,94 45,95 46,96 47,95 48,94 49,95 50,94 51,95 52,96 53,95 54,96 55,97 56,98 57,99 58,100 59,99 60,100 61,101 62,102 63,103 64,104 65,103 66,102 67,103 68,102 69,101 70,102 71,101 72,100 73,99 74,98 75,97 76,98 77,97 78,96 79,97 80,98 81,97 82,98 83,97 84,98 85,97 86,96 87,97 88,96 89,97 90,98 91,99 92,100 93,99 94,100 95,101 96,100 97,101 98,102 99,103 100,104 101,105 102,104 103,103 104,104 105,103 106,104 107,103 108,104 109,103 110,102 111,101 112,100 113,99 114,98 115,97 116,96 117,95 118,96 119,95 120,96 121,97 122,98 123,97 124,96 125,95 126,96 127,97 128,96 129,97 130,96 131,95 132,94 133,95 134,96 135,95 136,96 137,95 138,96 139,95 140,94 141,93 142,92 143,91 144,92 145,93 146,94 147,93 148,94 149,93 150,92 151,91 152,90 153,91 154,92 155,91 156,92 157,93 158,94 159,93 160,94 161,93 162,94 163,95 164,96 165,95 166,94 167,95 168,94 169,95 170,96 171,97 172,98 173,97 174,96 175,95 176,96 177,97 178,96 179,95 180,94 181,95 182,96 183,97 184,96 185,97 186,98 187,99 188,98 189,99 190,100 191,101 192,102 193,103 194,102 195,101 196,100 197,99 198,100 199,101 200,100 201,101 202,100 203,99 204,100 205,99 206,100 207,99 208,100 209,101 210,102 211,101 212,100 213,99 214,100 215,101 216,100 217,99 218,98 219,99 220,100 221,99 222,98 223,97 224,98 225,97 226,96 227,95 228,96 229,95 230,96 231,95 232,94 233,93 234,94 235,95 236,94 237,95 238,94 239,93 240,94 241,93 242,94 243,95 244,96 245,97 246,96 247,97 248,96 249,97 250,98 251,97 252,98 253,97 254,98 255,97 256,98 257,97 258,96 259,95 260,96 261,97 262,98 263,99 264,98 265,99 266,98 267,97 268,96 269,95 270,96 271,97 272,98 273,97 274,98 275,97 276,98 277,99 278,100 279,101 280,102 281,101 282,100 283,99 284,100 285,99 286,98 287,97 288,96 289,95 290,94 291,93 292,94 293,95 294,96 295,95 296,96 297,97 298,98 299,97 300,96 301,97 302,96 303,95 304,94 305,95 306,96 307,97 308,98 309,97 310,98 311,99 312,100 313,99 314,100 315,101 316,102 317,101 318,102 319,101 320,100 321,99 322,98 323,97 324,96 325,95 326,94 327,93 328,92 329,91 330,90 331,89 332,90 333,89 334,90 335,91 336,92 337,93 338,92 339,93 340,92 341,91 342,92 343,91 344,90 345,89 346,90 347,89 348,88 349,89 350,90 351,89 352,90 353,89 354,90 355,91 356,90 357,91 358,90 359,89 360,90 361,89 362,88 363,87 364,88 365,87 366,88 367,89 368,88 369,87 370,88 371,87 372,86 373,85 374,84 375,85 376,84 377,83 378,82 379,83 380,84 381,83 382,84 383,85 384,86 385,85 386,84 387,83 388,84 389,83 390,84 391,83 392,82 393,83 394,82 395,81 396,80 397,79 398,80 399,79 400,200 " style="fill:rgb(126,106,97);stroke:rgb(26,6,0)"></polygon></svg>