<?xml version="1.0" encoding="UTF-8" standalone="no"?>
<!DOCTYPE svg PUBLIC "-//W3C//DTD SVG 1.0//EN" "http://www.w3.org/TR/2001/PR-SVG-20010719/DTD/svg10.dtd">
<svg width="24cm" height="22cm" viewBox="62 -38 461 433" xmlns="http://www.w3.org/2000/svg" xmlns:xlink="http://www.w3.org/1999/xlink">
  <g>
    <rect style="fill: #ffffff" x="80" y="-20" width="160" height="240"/>
    <rect style="fill: none; fill-opacity:0; stroke-width: 2; stroke: #000000" x="80" y="-20" width="160" height="240"/>
  </g>
  <line style="fill: none; fill-opacity:0; stroke-width: 2; stroke: #000000" x1="80" y1="0" x2="240" y2="0"/>
  <line style="fill: none; fill-opacity:0; stroke-width: 2; stroke: #000000" x1="80" y1="20" x2="240" y2="20"/>
  <line style="fill: none; fill-opacity:0; stroke-width: 2; stroke: #000000" x1="80" y1="40" x2="240" y2="40"/>
  <line style="fill: none; fill-opacity:0; stroke-width: 2; stroke: #000000" x1="80" y1="160" x2="240" y2="160"/>
  <line style="fill: none; fill-opacity:0; stroke-width: 2; stroke: #000000" x1="80" y1="180" x2="240" y2="180"/>
  <line style="fill: none; fill-opacity:0; stroke-width: 2; stroke: #000000" x1="80" y1="200" x2="240" y2="200"/>
  <text style="fill: #000000;text-anchor:middle;font-size:12.8;font-family:sanserif;font-style:normal;font-weight:normal" x="160" y="-5.575">
    <tspan x="160" y="-5.575">Filename (8B)</tspan>
  </text>
  <text style="fill: #000000;text-anchor:middle;font-size:12.8;font-family:sanserif;font-style:normal;font-weight:normal" x="160" y="14.425">
    <tspan x="160" y="14.425">Extension (3B)</tspan>
  </text>
  <text style="fill: #000000;text-anchor:middle;font-size:12.8;font-family:sanserif;font-style:normal;font-weight:normal" x="160" y="54.425">
    <tspan x="160" y="54.425">Reserved (1B)</tspan>
  </text>
  <text style="fill: #000000;text-anchor:middle;font-size:12.8;font-family:sanserif;font-style:normal;font-weight:normal" x="160" y="74.425">
    <tspan x="160" y="74.425">Create time (3B)</tspan>
  </text>
  <text style="fill: #000000;text-anchor:middle;font-size:12.8;font-family:sanserif;font-style:normal;font-weight:normal" x="160" y="174.425">
    <tspan x="160" y="174.425">Last mod. date (2B)</tspan>
  </text>
  <text style="fill: #000000;text-anchor:middle;font-size:12.8;font-family:sanserif;font-style:normal;font-weight:normal" x="160" y="194.425">
    <tspan x="160" y="194.425">First cluster # (LSB, 2B)</tspan>
  </text>
  <text style="fill: #000000;text-anchor:middle;font-size:12.8;font-family:sanserif;font-style:normal;font-weight:normal" x="160" y="214.425">
    <tspan x="160" y="214.425">File size (4B)</tspan>
  </text>
  <text style="fill: #000000;text-anchor:start;font-size:12.8;font-family:sanserif;font-style:normal;font-weight:normal" x="300" y="150">
    <tspan x="300" y="150"/>
  </text>
  <text style="fill: #000000;text-anchor:middle;font-size:12.8;font-family:sanserif;font-style:normal;font-weight:700" x="160" y="-25.575">
    <tspan x="160" y="-25.575">Directory table entry (32B)</tspan>
  </text>
  <text style="fill: #000000;text-anchor:start;font-size:12.8;font-family:sanserif;font-style:normal;font-weight:normal" x="360" y="210">
    <tspan x="360" y="210"/>
  </text>
  <g>
    <rect style="fill: #ffffff" x="300" y="110" width="160" height="260"/>
    <rect style="fill: none; fill-opacity:0; stroke-width: 2; stroke: #000000" x="300" y="110" width="160" height="260"/>
  </g>
  <text style="fill: #000000;text-anchor:middle;font-size:12.8;font-family:sanserif;font-style:normal;font-weight:700" x="380" y="104.425">
    <tspan x="380" y="104.425">File allocation table</tspan>
  </text>
  <text style="fill: #000000;text-anchor:middle;font-size:12.8;font-family:sanserif;font-style:normal;font-weight:normal" x="380" y="134.425">
    <tspan x="380" y="134.425">Volume info</tspan>
  </text>
  <line style="fill: none; fill-opacity:0; stroke-width: 2; stroke: #000000" x1="300" y1="150" x2="460" y2="150"/>
  <line style="fill: none; fill-opacity:0; stroke-width: 2; stroke: #000000" x1="300" y1="170" x2="460" y2="170"/>
  <line style="fill: none; fill-opacity:0; stroke-width: 2; stroke: #000000" x1="300" y1="190" x2="460" y2="190"/>
  <line style="fill: none; fill-opacity:0; stroke-width: 2; stroke: #000000" x1="300" y1="210" x2="460" y2="210"/>
  <g>
    <line style="fill: none; fill-opacity:0; stroke-width: 2; stroke: #4362ae" x1="240" y1="190" x2="289" y2="190"/>
    <polygon style="fill: #4362ae" points="289,195 299,190 289,185 "/>
    <polygon style="fill: none; fill-opacity:0; stroke-width: 2; stroke: #4362ae" points="289,195 299,190 289,185 "/>
  </g>
  <text style="fill: #000000;text-anchor:start;font-size:12.8;font-family:sanserif;font-style:normal;font-weight:normal" x="380" y="160">
    <tspan x="380" y="160"/>
  </text>
  <text style="fill: #000000;text-anchor:middle;font-size:12.8;font-family:sanserif;font-style:normal;font-weight:normal" x="380" y="204.425">
    <tspan x="380" y="204.425">8</tspan>
  </text>
  <text style="fill: #000000;text-anchor:middle;font-size:12.8;font-family:sanserif;font-style:normal;font-weight:normal" x="380" y="244.425">
    <tspan x="380" y="244.425">EOC</tspan>
  </text>
  <text style="fill: #000000;text-anchor:middle;font-size:12.8;font-family:sanserif;font-style:normal;font-weight:normal" x="380" y="284.425">
    <tspan x="380" y="284.425">3</tspan>
  </text>
  <text style="fill: #000000;text-anchor:middle;font-size:12.8;font-family:sanserif;font-style:normal;font-weight:normal" x="380" y="184.425">
    <tspan x="380" y="184.425">6</tspan>
  </text>
  <line style="fill: none; fill-opacity:0; stroke-width: 2; stroke: #000000" x1="300" y1="230" x2="460" y2="230"/>
  <line style="fill: none; fill-opacity:0; stroke-width: 2; stroke: #000000" x1="300" y1="250" x2="460" y2="250"/>
  <line style="fill: none; fill-opacity:0; stroke-width: 2; stroke: #000000" x1="300" y1="270" x2="460" y2="270"/>
  <line style="fill: none; fill-opacity:0; stroke-width: 2; stroke: #000000" x1="300" y1="290" x2="460" y2="290"/>
  <line style="fill: none; fill-opacity:0; stroke-width: 2; stroke: #000000" x1="300" y1="310" x2="460" y2="310"/>
  <line style="fill: none; fill-opacity:0; stroke-width: 2; stroke: #000000" x1="300" y1="330" x2="460" y2="330"/>
  <line style="fill: none; fill-opacity:0; stroke-width: 2; stroke: #000000" x1="300" y1="350" x2="460" y2="350"/>
  <text style="fill: #000000;text-anchor:middle;font-size:12.8;font-family:sanserif;font-style:normal;font-weight:normal" x="380" y="364.425">
    <tspan x="380" y="364.425">…</tspan>
  </text>
  <text style="fill: #000000;text-anchor:middle;font-size:12.8;font-family:sanserif;font-style:italic;font-weight:normal" x="380" y="164.425">
    <tspan x="380" y="164.425">Free</tspan>
  </text>
  <text style="fill: #000000;text-anchor:middle;font-size:12.8;font-family:sanserif;font-style:italic;font-weight:normal" x="380" y="304.425">
    <tspan x="380" y="304.425">Free</tspan>
  </text>
  <g>
    <line style="fill: none; fill-opacity:0; stroke-width: 2; stroke: #c01616" x1="260" y1="250" x2="289" y2="250"/>
    <line style="fill: none; fill-opacity:0; stroke-width: 2; stroke: #c01616" x1="240" y1="250" x2="244" y2="250"/>
    <line style="fill: none; fill-opacity:0; stroke-width: 2; stroke: #c01616" x1="246.667" y1="250" x2="250.667" y2="250"/>
    <line style="fill: none; fill-opacity:0; stroke-width: 2; stroke: #c01616" x1="253.333" y1="250" x2="257.333" y2="250"/>
    <polygon style="fill: #c01616" points="289,255 299,250 289,245 "/>
    <polygon style="fill: none; fill-opacity:0; stroke-width: 2; stroke: #c01616" points="289,255 299,250 289,245 "/>
  </g>
  <text style="fill: #000000;text-anchor:middle;font-size:12.8;font-family:sanserif;font-style:normal;font-weight:normal" x="380" y="264.425">
    <tspan x="380" y="264.425">5</tspan>
  </text>
  <text style="fill: #000000;text-anchor:middle;font-size:12.8;font-family:sanserif;font-style:normal;font-weight:normal" x="380" y="224.425">
    <tspan x="380" y="224.425">10</tspan>
  </text>
  <text style="fill: #000000;text-anchor:middle;font-size:12.8;font-family:sanserif;font-style:normal;font-weight:normal" x="380" y="324.425">
    <tspan x="380" y="324.425">11</tspan>
  </text>
  <text style="fill: #000000;text-anchor:middle;font-size:12.8;font-family:sanserif;font-style:normal;font-weight:normal" x="380" y="344.425">
    <tspan x="380" y="344.425">EOC</tspan>
  </text>
  <g>
    <path style="fill: none; fill-opacity:0; stroke-width: 2; stroke: #c01616" d="M 460 320 C 480,320 480,330 471,330"/>
    <polygon style="fill: #c01616" points="471,325 461,330 471,335 "/>
    <polygon style="fill: none; fill-opacity:0; stroke-width: 2; stroke: #c01616" points="471,325 461,330 471,335 "/>
  </g>
  <g>
    <path style="fill: none; fill-opacity:0; stroke-width: 2; stroke: #c01616" d="M 460 220 C 540,220 540,310 471,310"/>
    <polygon style="fill: #c01616" points="471,305 461,310 471,315 "/>
    <polygon style="fill: none; fill-opacity:0; stroke-width: 2; stroke: #c01616" points="471,305 461,310 471,315 "/>
  </g>
  <g>
    <path style="fill: none; fill-opacity:0; stroke-width: 2; stroke: #c01616" d="M 460 260 C 500,260 500,210 471,210"/>
    <polygon style="fill: #c01616" points="471,205 461,210 471,215 "/>
    <polygon style="fill: none; fill-opacity:0; stroke-width: 2; stroke: #c01616" points="471,205 461,210 471,215 "/>
  </g>
  <g>
    <path style="fill: none; fill-opacity:0; stroke-width: 2; stroke: #4362ae" d="M 460 280 C 520,280 520,170 471,170"/>
    <polygon style="fill: #4362ae" points="471,165 461,170 471,175 "/>
    <polygon style="fill: none; fill-opacity:0; stroke-width: 2; stroke: #4362ae" points="471,165 461,170 471,175 "/>
  </g>
  <g>
    <path style="fill: none; fill-opacity:0; stroke-width: 2; stroke: #4362ae" d="M 460 180 C 499.84,180 500,230 471,230"/>
    <polygon style="fill: #4362ae" points="471,225 461,230 471,235 "/>
    <polygon style="fill: none; fill-opacity:0; stroke-width: 2; stroke: #4362ae" points="471,225 461,230 471,235 "/>
  </g>
  <g>
    <path style="fill: none; fill-opacity:0; stroke-width: 2; stroke: #4362ae" d="M 460 200 C 510,200 510,270 471,270"/>
    <polygon style="fill: #4362ae" points="471,265 461,270 471,275 "/>
    <polygon style="fill: none; fill-opacity:0; stroke-width: 2; stroke: #4362ae" points="471,265 461,270 471,275 "/>
  </g>
  <g>
    <line style="fill: none; fill-opacity:0; stroke-width: 2; stroke-dasharray: 4; stroke: #000000" x1="304.472" y1="380" x2="455.528" y2="380"/>
    <polyline style="fill: none; fill-opacity:0; stroke-width: 2; stroke: #000000" points="312.236,375 302.236,380 312.236,385 "/>
    <polyline style="fill: none; fill-opacity:0; stroke-width: 2; stroke: #000000" points="447.764,385 457.764,380 447.764,375 "/>
  </g>
  <text style="fill: #000000;text-anchor:middle;font-size:12.8;font-family:sanserif;font-style:normal;font-weight:normal" x="380" y="391.9">
    <tspan x="380" y="391.9">32b</tspan>
  </text>
  <text style="fill: #000000;text-anchor:middle;font-size:12.8;font-family:sanserif;font-style:normal;font-weight:normal" x="160" y="34.425">
    <tspan x="160" y="34.425">Attributes (1B)</tspan>
  </text>
  <line style="fill: none; fill-opacity:0; stroke-width: 2; stroke: #000000" x1="80" y1="60" x2="240" y2="60"/>
  <line style="fill: none; fill-opacity:0; stroke-width: 2; stroke: #000000" x1="80" y1="80" x2="240" y2="80"/>
  <text style="fill: #000000;text-anchor:middle;font-size:12.8;font-family:sanserif;font-style:normal;font-weight:normal" x="160" y="94.425">
    <tspan x="160" y="94.425">Create date (2B)</tspan>
  </text>
  <text style="fill: #000000;text-anchor:middle;font-size:12.8;font-family:sanserif;font-style:normal;font-weight:normal" x="160" y="114.425">
    <tspan x="160" y="114.425">Last access date (2B)</tspan>
  </text>
  <line style="fill: none; fill-opacity:0; stroke-width: 2; stroke: #000000" x1="80" y1="100" x2="240" y2="100"/>
  <text style="fill: #000000;text-anchor:middle;font-size:12.8;font-family:sanserif;font-style:normal;font-weight:normal" x="160" y="134.425">
    <tspan x="160" y="134.425">First cluster # (MSB, 2B)</tspan>
  </text>
  <text style="fill: #000000;text-anchor:middle;font-size:12.8;font-family:sanserif;font-style:normal;font-weight:normal" x="160" y="154.425">
    <tspan x="160" y="154.425">Last mod. time (2B)</tspan>
  </text>
  <line style="fill: none; fill-opacity:0; stroke-width: 2; stroke: #000000" x1="80" y1="120" x2="240" y2="120"/>
  <line style="fill: none; fill-opacity:0; stroke-width: 2; stroke: #000000" x1="80" y1="140" x2="240" y2="140"/>
  <polyline style="fill: none; fill-opacity:0; stroke-width: 2; stroke: #4362ae" points="240,130 240,130 270,130 270,190 "/>
  <text style="fill: #000000;text-anchor:end;font-size:11.2889;font-family:sanserif;font-style:italic;font-weight:normal" x="290" y="120.5">
    <tspan x="290" y="120.5">0</tspan>
  </text>
  <text style="fill: #000000;text-anchor:end;font-size:11.2889;font-family:sanserif;font-style:italic;font-weight:normal" x="290" y="140.5">
    <tspan x="290" y="140.5">1</tspan>
  </text>
  <text style="fill: #000000;text-anchor:end;font-size:11.2889;font-family:sanserif;font-style:italic;font-weight:normal" x="290" y="160.5">
    <tspan x="290" y="160.5">2</tspan>
  </text>
  <text style="fill: #000000;text-anchor:end;font-size:11.2889;font-family:sanserif;font-style:italic;font-weight:normal" x="290" y="180.5">
    <tspan x="290" y="180.5">3</tspan>
  </text>
  <text style="fill: #000000;text-anchor:end;font-size:11.2889;font-family:sanserif;font-style:italic;font-weight:normal" x="290" y="200.5">
    <tspan x="290" y="200.5">4</tspan>
  </text>
  <text style="fill: #000000;text-anchor:end;font-size:11.2889;font-family:sanserif;font-style:italic;font-weight:normal" x="290" y="220.5">
    <tspan x="290" y="220.5">5</tspan>
  </text>
  <text style="fill: #000000;text-anchor:end;font-size:11.2889;font-family:sanserif;font-style:italic;font-weight:normal" x="290" y="240.5">
    <tspan x="290" y="240.5">6</tspan>
  </text>
  <text style="fill: #000000;text-anchor:end;font-size:11.2889;font-family:sanserif;font-style:italic;font-weight:normal" x="290" y="260.5">
    <tspan x="290" y="260.5">7</tspan>
  </text>
  <text style="fill: #000000;text-anchor:end;font-size:11.2889;font-family:sanserif;font-style:italic;font-weight:normal" x="290" y="280.5">
    <tspan x="290" y="280.5">8</tspan>
  </text>
  <text style="fill: #000000;text-anchor:end;font-size:11.2889;font-family:sanserif;font-style:italic;font-weight:normal" x="290" y="300.5">
    <tspan x="290" y="300.5">9</tspan>
  </text>
  <text style="fill: #000000;text-anchor:end;font-size:11.2889;font-family:sanserif;font-style:italic;font-weight:normal" x="290" y="320.5">
    <tspan x="290" y="320.5">10</tspan>
  </text>
  <text style="fill: #000000;text-anchor:end;font-size:11.2889;font-family:sanserif;font-style:italic;font-weight:normal" x="290" y="340.5">
    <tspan x="290" y="340.5">11</tspan>
  </text>
</svg>